<?xml version="1.0" encoding="UTF-8" standalone="no"?>
<!-- Created with Inkscape (http://www.inkscape.org/) -->

<svg
   xmlns:dc="http://purl.org/dc/elements/1.1/"
   xmlns:cc="http://creativecommons.org/ns#"
   xmlns:rdf="http://www.w3.org/1999/02/22-rdf-syntax-ns#"
   xmlns:svg="http://www.w3.org/2000/svg"
   xmlns="http://www.w3.org/2000/svg"
   xmlns:sodipodi="http://sodipodi.sourceforge.net/DTD/sodipodi-0.dtd"
   xmlns:inkscape="http://www.inkscape.org/namespaces/inkscape"
   width="16px"
   height="16px"
   viewBox="0 0 16 16"
   version="1.1"
   id="SVGRoot"
   inkscape:version="0.92.5 (2060ec1f9f, 2020-04-08)"
   sodipodi:docname="logo.svg">
  <defs
     id="defs3713" />
  <sodipodi:namedview
     id="base"
     pagecolor="#ffffff"
     bordercolor="#666666"
     borderopacity="1.0"
     inkscape:pageopacity="0.0"
     inkscape:pageshadow="2"
     inkscape:zoom="32.000002"
     inkscape:cx="7.43966"
     inkscape:cy="4.9778714"
     inkscape:document-units="px"
     inkscape:current-layer="layer1"
     showgrid="false"
     inkscape:window-width="959"
     inkscape:window-height="1025"
     inkscape:window-x="0"
     inkscape:window-y="802"
     inkscape:window-maximized="0"
     inkscape:grid-bbox="true"
     showguides="false" />
  <metadata
     id="metadata3716">
    <rdf:RDF>
      <cc:Work
         rdf:about="">
        <dc:format>image/svg+xml</dc:format>
        <dc:type
           rdf:resource="http://purl.org/dc/dcmitype/StillImage" />
        <dc:title />
      </cc:Work>
    </rdf:RDF>
  </metadata>
  <g
     inkscape:label="Layer 1"
     inkscape:groupmode="layer"
     id="layer1">
    <path
       style="fill:none;stroke:#000000;stroke-width:1px;stroke-linecap:butt;stroke-linejoin:miter;stroke-opacity:1"
       d="M -8.0350333,-0.03153858 Z"
       id="path3738"
       inkscape:connector-curvature="0" />
    <path
       style="fill:none;stroke:#000000;stroke-width:1px;stroke-linecap:butt;stroke-linejoin:miter;stroke-opacity:1"
       d="M 6.625,21.375 Z"
       id="path3746"
       inkscape:connector-curvature="0" />
    <path
       style="fill:none;stroke:#000000;stroke-width:1px;stroke-linecap:butt;stroke-linejoin:miter;stroke-opacity:1"
       d="M -9.6600333,-3.1565386 Z"
       id="path3772"
       inkscape:connector-curvature="0" />
    <path
       style="fill:none;stroke:#000000;stroke-width:1px;stroke-linecap:butt;stroke-linejoin:miter;stroke-opacity:1"
       d="M -6.2755723,2.6975534 Z"
       id="path3786"
       inkscape:connector-curvature="0" />
    <path
       style="fill:none;stroke:#000000;stroke-width:1px;stroke-linecap:butt;stroke-linejoin:miter;stroke-opacity:1"
       d="M -9.3249703,-4.6828734 Z"
       id="path3794"
       inkscape:connector-curvature="0" />
    <path
       style="fill:none;stroke-width:0.03125"
       d="m -30.546966,4.5502354 -0.09814,-0.222194 h -0.245347 -0.245347 V -0.03133358 -4.3907086 h 0.249211 0.249211 l -0.105372,-0.2312238 -0.105372,-0.2312237 7.919614,-3.6792819 c 4.355788,-2.023605 7.924565,-3.673851 7.930617,-3.667214 0.04864,0.05335 0.389611,0.855824 0.370766,0.872594 -0.01337,0.01189 -0.671175,0.321139 -1.4618,0.687213 -0.790625,0.366074 -1.520042,0.7045896 -1.620926,0.7522565 l -0.183426,0.086667 0.115363,0.048202 c 0.06345,0.026511 0.108699,0.059043 0.100554,0.072294 -0.01276,0.020753 -3.090536,8.1944039 -3.335716,8.85865092 l -0.08889,0.240808 0.225268,-0.103024 c 0.123898,-0.05666 1.565205,-0.71884102 3.202906,-1.47150412 1.637701,-0.752664 2.982534,-1.3631043 2.988518,-1.356534 0.04845,0.053192 0.389465,0.8556565 0.370644,0.8721825 -0.02155,0.018925 -15.967677,7.3483746 -16.08649,7.3939676 -0.03557,0.01365 -0.07267,-0.03821 -0.14585,-0.203886 z m 0.956172,-1.230475 0.555919,-0.25828 -0.0078,-2.20265698 c -0.0043,-1.211461 -0.01644,-2.93587332 -0.02703,-3.83202642 l -0.01925,-1.6293694 -0.539063,0.2511147 -0.539062,0.2511147 v 3.83919242 c 0,2.11155498 0.0046,3.83919198 0.01017,3.83919198 0.0056,0 0.260333,-0.116226 0.566088,-0.258281 z m 4.530654,-2.081104 c 1.459583,-0.67123098 2.670421,-1.238604975501 2.690751,-1.26082998 0.03935,-0.043023 3.527206,-9.30525782 3.509603,-9.31999602 -0.0057,-0.00478 -1.132655,0.5129679 -2.504312,1.1505604 -1.914532,0.8899393 -2.490402,1.1702678 -2.478769,1.2066428 0.0083,0.026061 0.09454,0.2291159 0.191575,0.451234 0.509472,1.1662447 0.613056,2.3395782 0.294023,3.3305238 -0.42765,1.3283216 -1.614744,2.33465802 -3.481657,2.95150802 -0.315404,0.104214 -0.910951,0.267242 -0.976241,0.267242 -0.01508,0 -0.06651,-0.175523 -0.1143,-0.390051 -0.04779,-0.214528 -0.09431,-0.418434 -0.103379,-0.453125 -0.01138,-0.0435 -0.0013,-0.06307 0.0326,-0.06307 0.103232,0 1.02119,-0.28362902 1.36445,-0.42158502 1.114415,-0.447887 1.872686,-1.0583524 2.242781,-1.8056109 0.340442,-0.6873853 0.379194,-1.5117619 0.114661,-2.439234 -0.07714,-0.2704454 -0.299034,-0.8217972 -0.348162,-0.865081 -0.0137,-0.012069 -0.78428,0.28549 -1.712405,0.6612413 -0.928125,0.3757515 -1.717052,0.6911218 -1.753171,0.7008228 -0.05677,0.015249 -0.07532,-0.00816 -0.136871,-0.1727485 -0.09645,-0.257914 -0.137545,-0.2741462 -0.113033,-0.044651 0.01079,0.1010444 0.07567,0.9270234 0.144161,1.8355088 l 0.124539,1.6517914 3.44e-4,2.08258402 c 1.87e-4,1.14541998 0.0088,2.13383598 0.01918,2.19647898 l 0.01884,0.113896 0.160507,-0.07182 c 0.08828,-0.0395 1.354712,-0.621004 2.814295,-1.292236 z"
       id="path20"
       inkscape:connector-curvature="0" />
    <path
       style="fill:none;stroke:#000000;stroke-width:1.58778405px;stroke-linecap:butt;stroke-linejoin:miter;stroke-opacity:1"
       d="M -28.46984,3.9757112 -29.044612,-6.9189563 Z"
       id="path4559"
       inkscape:connector-curvature="0" />
    <path
       style="fill:#f2f2f2;stroke:#000000;stroke-width:1.22516334px;stroke-linecap:butt;stroke-linejoin:miter;stroke-opacity:1"
       d="m -32.789064,5.3587443 c 25.1723896,-9.569718 25.1723896,-9.569718 25.1723896,-9.569718 z"
       id="path4561"
       inkscape:connector-curvature="0" />
    <path
       style="fill:none;stroke:#000000;stroke-width:1.54531169px;stroke-linecap:butt;stroke-linejoin:miter;stroke-opacity:1"
       d="M -33.159524,-4.9400885 -8.6031993,-14.203466 Z"
       id="path4565"
       inkscape:connector-curvature="0" />
    <path
       style="fill:none;stroke:#000000;stroke-width:1px;stroke-linecap:butt;stroke-linejoin:miter;stroke-opacity:1"
       d="M -12.727922,0.92978642 Z"
       id="path4567"
       inkscape:connector-curvature="0" />
    <path
       style="fill:none;stroke:#000000;stroke-width:1.58778405px;stroke-linecap:butt;stroke-linejoin:miter;stroke-opacity:1"
       d="m -25.906815,2.9607664 -0.574772,-10.894669 z"
       id="path4559-3"
       inkscape:connector-curvature="0" />
    <path
       style="fill:none;stroke:#000000;stroke-width:1.19584048px;stroke-linecap:butt;stroke-linejoin:miter;stroke-opacity:1"
       d="m 34.368739,-9.6964947 c 0,0 10.165795,0.04534 5.113703,-7.5253593"
       id="path4592"
       inkscape:connector-curvature="0" />
    <path
       style="fill:none;stroke:#000000;stroke-width:1px;stroke-linecap:butt;stroke-linejoin:miter;stroke-opacity:1"
       d="M -23.422912,6.3214764 Z"
       id="path4594"
       inkscape:connector-curvature="0" />
    <path
       style="fill:none;stroke:#000000;stroke-width:1.16369176px;stroke-linecap:butt;stroke-linejoin:miter;stroke-opacity:1"
       d="m -25.998271,-2.2504144 c 0,0 7.161897,-0.5949402 4.841283,-7.2714929"
       id="path4598"
       inkscape:connector-curvature="0" />
    <path
       style="fill:#e6e6e6;stroke:none;stroke-width:0.05182078"
       d="m 15.446782,55.109313 c -0.08231,-0.21719 -0.158046,-0.419587 -0.168303,-0.449772 -0.01026,-0.03019 0.521193,-0.261923 1.181001,-0.514974 1.122659,-0.430565 1.199677,-0.46841 1.200043,-0.589682 9.78e-4,-0.324388 -0.374411,-7.091646 -0.394486,-7.111524 -0.01245,-0.01232 -0.446289,0.134345 -0.964096,0.325929 -0.517806,0.191586 -0.950907,0.338988 -0.962447,0.327563 -0.01154,-0.01143 -0.112952,-0.262906 -0.225362,-0.558843 -0.148548,-0.391078 -0.187298,-0.547712 -0.141849,-0.573369 0.05329,-0.03009 7.754958,-2.912394 16.30621,-6.102516 1.317568,-0.491532 2.766155,-1.032613 3.219082,-1.202404 0.546034,-0.204696 0.830718,-0.28842 0.844919,-0.248489 0.01178,0.03312 0.104043,0.276852 0.205036,0.541621 0.100984,0.26477 0.183618,0.499336 0.183618,0.521256 0,0.02192 -1.142458,0.464591 -2.538795,0.983711 -1.396337,0.519121 -2.565642,0.969081 -2.598453,0.999912 -0.05765,0.05417 -2.593041,8.175462 -2.560382,8.201322 0.0089,0.007 1.715185,-0.644916 3.791792,-1.448769 2.076604,-0.803854 3.790587,-1.4618 3.808849,-1.462102 0.06164,-0.001 0.37241,0.830325 0.325485,0.870709 -0.02542,0.02188 -1.628089,0.649634 -3.561478,1.395008 -4.034222,1.555304 -16.144036,6.232143 -16.537531,6.386835 l -0.2632,0.103472 z m 4.295464,-2.2291 c 0.386678,-0.149257 0.709741,-0.276065 0.717918,-0.281792 0.01446,-0.01008 -0.360795,-7.205915 -0.376969,-7.228658 -0.01068,-0.01501 -1.49027,0.539215 -1.52115,0.56979 -0.0131,0.01296 0.05978,1.586545 0.161962,3.496837 0.102177,1.910291 0.185599,3.53955 0.185384,3.620578 -2.6e-4,0.09763 0.02157,0.138434 0.06471,0.12097 0.0358,-0.01449 0.381471,-0.148469 0.768148,-0.297729 z m 4.527658,-1.753363 1.949803,-0.753803 0.05916,-0.278649 c 0.03254,-0.153257 0.592774,-1.991598 1.244972,-4.085204 0.652198,-2.093606 1.174466,-3.817793 1.160594,-3.831529 -0.02304,-0.02281 -2.883228,1.028617 -2.933481,1.078374 -0.01199,0.01187 0.01813,0.181623 0.06694,0.377225 0.0628,0.251719 0.08952,0.581664 0.0914,1.129117 0.0023,0.657318 -0.01524,0.835077 -0.116517,1.183671 -0.453008,1.55912 -1.792887,2.653907 -3.850233,3.145945 -0.20766,0.04967 -0.377056,0.105209 -0.376433,0.123424 6.25e-4,0.01821 0.03527,0.624826 0.07699,1.348025 0.04172,0.7232 0.07636,1.366327 0.07699,1.429173 l 0.0011,0.114267 0.299447,-0.113121 c 0.164699,-0.0622 1.176862,-0.452324 2.249253,-0.866915 z m -2.001882,-3.076378 c 1.436521,-0.44511 2.387171,-1.322 2.655681,-2.44963 0.124217,-0.52166 0.07342,-1.802425 -0.07792,-1.96455 -0.03868,-0.04143 -3.362168,1.166203 -3.457098,1.256181 -0.0267,0.02531 -0.01003,0.712164 0.03964,1.632658 0.04715,0.873936 0.08547,1.619823 0.08515,1.657528 -6.93e-4,0.08209 0.145869,0.05642 0.754549,-0.132187 z"
       id="path4600"
       inkscape:connector-curvature="0" />
    <path
       style="fill:#ececec;stroke:none;stroke-width:0.07175568"
       d="m -13.880646,94.394992 c -0.08406,-0.229459 -0.129765,-0.439287 -0.101565,-0.466283 0.02819,-0.027 0.682713,-0.312851 1.454477,-0.635233 l 1.403208,-0.586146 -0.03445,-0.29751 c -0.01895,-0.163632 -0.103545,-1.795547 -0.187994,-3.626479 -0.08445,-1.830933 -0.172119,-3.361269 -0.194828,-3.400744 -0.02374,-0.04126 -0.503433,0.115655 -1.128401,0.369124 -0.597912,0.242494 -1.137294,0.450765 -1.198626,0.462825 -0.08129,0.01598 -0.165447,-0.127964 -0.31051,-0.531095 -0.10945,-0.304161 -0.191792,-0.557712 -0.182982,-0.563449 0.0088,-0.0058 4.314956,-1.752053 9.5692154,-3.880704 7.3733208,-2.987142 9.5655938,-3.847627 9.6075268,-3.771031 0.02988,0.05459 0.12856,0.311139 0.219291,0.570124 l 0.164962,0.470883 -1.717413,0.694786 -1.717415,0.694787 -0.392942,1.60688 c -0.216119,0.883784 -0.66712401,2.728123 -1.00223301,4.098532 -0.335108,1.370409 -0.602646,2.500394 -0.594533,2.511077 0.0081,0.01071 1.209087,-0.482433 2.66882201,-1.095815 1.459735,-0.613382 2.661313,-1.107437 2.670172,-1.097901 0.0089,0.0096 0.08255,0.198439 0.163738,0.419783 0.114168,0.311244 0.128013,0.415469 0.06107,0.459915 -0.04761,0.03161 -4.215664,1.787809 -9.2623649,3.902666 -5.0467004,2.11486 -9.3170233,3.904375 -9.4896083,3.976704 l -0.313791,0.131503 z m 4.4700349,-2.403911 c 0.2788696,-0.128285 0.2953295,-0.152115 0.2622926,-0.379711 -0.019388,-0.133562 -0.1035467,-1.765723 -0.1870235,-3.627024 -0.083481,-1.861302 -0.1709687,-3.408271 -0.1944243,-3.437709 -0.023458,-0.02944 -0.2223921,0.01762 -0.4420768,0.104567 l -0.3994289,0.158089 0.04035,0.602023 c 0.06192,0.923893 0.311254,6.127991 0.311254,6.496487 0,0.36598 -0.0042,0.365402 0.6090585,0.08328 z m 4.7569035,-1.997093 2.9084358,-1.215914 0.99428699,-4.081548 c 0.546857,-2.244852 0.979534,-4.097399 0.961503,-4.116771 -0.037313,-0.04008 -4.28014349,1.66019 -4.36972259,1.751117 -0.032101,0.03259 -0.019035,0.255273 0.029043,0.494867 0.1143832,0.570084 0.1135249,1.594808 -0.00182,2.109122 -0.2649651,1.182046 -1.0390547,2.162606 -2.1919817,2.776663 -0.4736676,0.252278 -1.1647822,0.514309 -1.6084616,0.609838 -0.2265907,0.04877 -0.2309329,0.05684 -0.1933508,0.358494 0.021145,0.169724 0.059286,0.851161 0.084764,1.514304 l 0.04633,1.205716 0.2162533,-0.09498 c 0.1189391,-0.05223 1.5250493,-0.642145 3.1246902,-1.3109 z m -2.0253759,-3.097715 c 0.6546495,-0.35421 1.2398887,-0.961883 1.5241465,-1.582573 0.217531,-0.474985 0.2233829,-0.513523 0.2233829,-1.47092 0,-0.668988 -0.026709,-1.011842 -0.083601,-1.072928 -0.065294,-0.07012 -0.4416748,0.05527 -1.7191262,0.572757 l -1.6355272,0.66253 0.038867,0.446266 c 0.021377,0.245447 0.056801,0.948316 0.078705,1.561933 0.021904,0.613615 0.053833,1.188812 0.070938,1.278217 l 0.031114,0.162552 0.4892995,-0.145682 c 0.2691126,-0.08012 0.7109166,-0.265595 0.9817855,-0.412152 z"
       id="path4602"
       inkscape:connector-curvature="0" />
    <path
       style="fill:none;stroke:#000000;stroke-width:1px;stroke-linecap:butt;stroke-linejoin:miter;stroke-opacity:1"
       d="M -11.125,6.3125004 Z"
       id="path4674"
       inkscape:connector-curvature="0" />
    <path
       style="fill:none;stroke:#000000;stroke-width:1px;stroke-linecap:butt;stroke-linejoin:miter;stroke-opacity:1"
       d="m -18.562499,-5.562499 c 0,0 1.1875,1.1249999 0.375,1.3749999 -0.8125,0.25 -0.5,-0.625 -0.5,-0.625 z"
       id="path4684"
       inkscape:connector-curvature="0" />
    <path
       style="fill:none;stroke:#000000;stroke-width:1.12959754px;stroke-linecap:butt;stroke-linejoin:miter;stroke-opacity:1"
       d="m -12.837281,-12.490745 c -4.67803,11.95892185 -4.67803,12.02391595 -4.67803,12.02391595 z"
       id="path4686"
       inkscape:connector-curvature="0" />
    <path
       style="fill:none;stroke:#000000;stroke-width:1px;stroke-linecap:butt;stroke-linejoin:miter;stroke-opacity:1"
       d="M -13.499999,3.5625005 Z"
       id="path4688"
       inkscape:connector-curvature="0" />
    <path
       style="fill:#f2f2f2;stroke:none;stroke-width:0.06647208"
       d="m 0.01127353,16.004732 c -0.01546515,-0.02854 -0.0843641,-0.220691 -0.15310392,-0.427001 l -0.12498142,-0.375112 0.16646107,-0.07085 C 1.1645489,14.593401 2.2540234,14.113202 2.2905904,14.077935 2.3305408,14.039401 2.038934,7.0469141 1.9949867,6.989611 1.9858026,6.9776375 1.4958886,7.1772843 0.90628623,7.4332714 0.31668435,7.6892579 -0.17413121,7.8987011 -0.1844144,7.8987011 c -0.0275419,0 -0.34080733,-0.9491061 -0.34080733,-1.0325554 0,-0.067209 17.00782273,-7.41945852 17.15585773,-7.4162437 0.03821,8.0311e-4 0.133054,0.20115592 0.210773,0.44516911 0.07772,0.24401323 0.152931,0.47894646 0.167141,0.52207437 0.01522,0.046219 -0.536788,0.31909029 -1.344374,0.66455402 -0.753615,0.3223768 -1.411523,0.6224977 -1.462017,0.6669354 -0.09576,0.084276 -2.932408,8.3381631 -2.884418,8.3928911 0.01507,0.01719 1.352997,-0.544198 2.973172,-1.2475199 1.620174,-0.7033218 2.986201,-1.286862 3.035615,-1.2967541 0.110493,-0.02212 0.370933,0.70243 0.286723,0.7976664 -0.03089,0.034925 -3.921599,1.7393226 -8.646033,3.7875436 -4.7244343,2.048222 -8.66591675,3.757817 -8.75885165,3.799101 -0.0929341,0.04128 -0.18162586,0.05171 -0.19709282,0.02317 z M 3.7824182,13.450616 c 0.1610421,-0.06975 0.3084623,-0.144675 0.3275997,-0.166499 0.032789,-0.03739 -0.2720636,-7.0295616 -0.3084531,-7.0747081 -0.00937,-0.011621 -0.180407,0.053769 -0.3800893,0.145312 l -0.3630588,0.1664415 0.01276,0.3160941 c 0.095178,2.3579614 0.2742986,6.2051045 0.2997776,6.4386055 0.018106,0.165929 0.052211,0.301663 0.07579,0.301631 0.023577,-3.1e-5 0.1746323,-0.05712 0.335675,-0.126877 z m 4.0281752,-1.746869 2.5158596,-1.091675 1.10136,-3.2275708 C 12.033561,5.6093371 12.684496,3.7051154 12.874335,3.1528971 13.064174,2.600679 13.211717,2.148864 13.202209,2.148864 c -0.0095,0 -1.050303,0.4453291 -2.312877,0.9896197 -1.8874427,0.8136701 -2.2941827,1.012449 -2.2876897,1.1180235 0.00437,0.070626 0.042789,0.3679805 0.085428,0.6607964 C 8.8722309,6.1887904 8.5695518,7.4213048 7.8529179,8.3139931 7.3492488,8.9413959 6.321297,9.5697165 5.3960512,9.815715 l -0.3344003,0.088904 0.042247,1.215339 c 0.043479,1.250847 0.081913,1.677224 0.1510779,1.676103 0.021866,-3.55e-4 1.1718937,-0.491898 2.5556178,-1.092318 z M 5.5871858,8.8505361 C 7.3296144,8.2303159 8.1516494,6.9409502 7.9485543,5.1467181 7.91085,4.8136196 7.8654576,4.5244996 7.847683,4.5042291 7.8299082,4.4839586 7.1532695,4.7497136 6.344043,5.0947966 L 4.8727209,5.7222202 4.9146854,6.934685 c 0.041817,1.208216 0.099755,2.0997858 0.1364455,2.0997858 0.01062,0 0.2518466,-0.082774 0.5360524,-0.1839347 z"
       id="path4690"
       inkscape:connector-curvature="0" />
    <path
       style="fill:#f2f2f2;stroke:none;stroke-width:0.06647208"
       d="M 10.182913,8.1223618 C 9.870202,7.91784 9.8552373,7.7961143 10.007831,6.6981577 l 0.106263,-0.7645931 0.333648,0.3741721 c 0.565489,0.6341712 0.745689,1.0732498 0.601247,1.465011 -0.12826,0.3478718 -0.586133,0.5327044 -0.866076,0.3496141 z"
       id="path4692"
       inkscape:connector-curvature="0" />
  </g>
</svg>
